<svg width="15" height="15" viewBox="0 0 15 15" fill="none" xmlns="http://www.w3.org/2000/svg">
<path d="M6.79163 6.79167H1.12496C0.733758 6.79167 0.416626 7.1088 0.416626 7.50001C0.416626 7.89121 0.733758 8.20834 1.12496 8.20834H6.79163V13.875C6.79163 14.2662 7.10876 14.5833 7.49996 14.5833C7.89116 14.5833 8.20829 14.2662 8.20829 13.875V8.20834H13.875C14.2662 8.20834 14.5833 7.89121 14.5833 7.50001C14.5833 7.1088 14.2662 6.79167 13.875 6.79167H8.20829V1.12501C8.20829 0.733803 7.89116 0.416672 7.49996 0.416672C7.10876 0.416672 6.79163 0.733803 6.79163 1.12501V6.79167Z" fill="#F5F6F7"/>
</svg>
