<svg width="23" height="26" viewBox="0 0 23 26" fill="none" xmlns="http://www.w3.org/2000/svg">
<path fill-rule="evenodd" clip-rule="evenodd" d="M3.91496 4.95053H4.8421L4.88845 4.96086C6.17362 4.98864 7.29654 5.9353 7.66987 7.3057L7.8553 8.01844H17.5254C18.3793 8.02277 19.1901 8.43683 19.7505 9.15471C20.3093 9.87714 20.5565 10.8357 20.4273 11.7784L19.871 16.0549C19.6857 17.6941 18.4426 18.9292 16.9598 18.9472H11.5082C10.2059 18.9418 9.05894 17.9908 8.68045 16.6024L6.33479 7.79119C6.15517 7.03524 5.54395 6.50652 4.8421 6.49998H3.91496C3.53093 6.49998 3.2196 6.15313 3.2196 5.72526C3.2196 5.29739 3.53093 4.95053 3.91496 4.95053ZM10.0155 16.1066C10.2123 16.842 10.8194 17.3461 11.5082 17.3461H16.9598C17.7272 17.3369 18.377 16.7132 18.4989 15.869L19.0551 11.5822C19.1309 11.0832 19.0074 10.5722 18.7169 10.1831C18.4265 9.794 17.9981 9.56554 17.5439 9.55756H8.27251L10.0155 16.1066Z" fill="black"/>
<path d="M11.295 20.1868C10.7829 20.1868 10.3678 20.6493 10.3678 21.2198C10.3678 21.7903 10.7829 22.2527 11.295 22.2527C11.807 22.2527 12.2221 21.7903 12.2221 21.2198C12.2221 20.6493 11.807 20.1868 11.295 20.1868Z" fill="black"/>
<path d="M16.8578 20.1868C16.3458 20.1868 15.9307 20.6493 15.9307 21.2198C15.9307 21.7903 16.3458 22.2527 16.8578 22.2527C17.3699 22.2527 17.785 21.7903 17.785 21.2198C17.785 20.6493 17.3699 20.1868 16.8578 20.1868Z" fill="black"/>
</svg>
