<svg width="22" height="20" viewBox="0 0 22 20" fill="none" xmlns="http://www.w3.org/2000/svg">
<path d="M11 2.45716C12.4798 0.842806 13.9514 0 16 0C19.5355 0 22 2.69521 22 6.23636C22 10.5503 18.6676 14.9231 12.1369 19.4352C11.4527 19.9079 10.5473 19.9079 9.86314 19.4352C3.33242 14.9231 0 10.5503 0 6.23636C0 2.69521 2.46447 0 6 0C8.04864 0 9.5202 0.842806 11 2.45716ZM10.218 4.62332C8.79996 2.84432 7.63181 2 6 2C3.61097 2 2 3.76181 2 6.23636C2 9.73548 4.9553 13.6134 11 17.7897C17.0447 13.6134 20 9.73548 20 6.23636C20 3.76181 18.389 2 16 2C14.3682 2 13.2 2.84432 11.782 4.62332C11.3816 5.12556 10.6184 5.12556 10.218 4.62332Z" fill="#4B5568"/>
</svg>
