<svg width="28" height="28" viewBox="0 0 28 28" fill="none" xmlns="http://www.w3.org/2000/svg">
<path d="M27.5117 1.33417C27.3287 0.908108 26.9116 0.630066 26.4479 0.625H18.7396C18.101 0.625 17.5833 1.14267 17.5833 1.78125C17.5833 2.41983 18.101 2.9375 18.7396 2.9375H23.6575L14.8392 11.7558C14.3883 12.2073 14.3883 12.9386 14.8392 13.39C15.2906 13.8409 16.0219 13.8409 16.4733 13.39L25.2917 4.57167V9.48958C25.2917 10.1282 25.8093 10.6458 26.4479 10.6458C27.0865 10.6458 27.6042 10.1282 27.6042 9.48958V1.78125C27.6034 1.62756 27.5719 1.47557 27.5117 1.33417Z" fill="black"/>
<path d="M23.3646 12.9583C22.7295 12.9666 22.2166 13.4795 22.2083 14.1146V20.2812C22.1999 23.0449 19.9616 25.2832 17.1979 25.2917H7.94792C5.18425 25.2832 2.94596 23.0449 2.9375 20.2812V11.0312C2.94596 8.26759 5.18425 6.0293 7.94792 6.02083H14.1146C14.7532 6.02083 15.2708 5.50316 15.2708 4.86458C15.2708 4.226 14.7532 3.70833 14.1146 3.70833H7.94792C3.90358 3.70833 0.625 6.98691 0.625 11.0312V20.2812C0.625 24.3256 3.90358 27.6042 7.94792 27.6042H17.1979C21.2423 27.6042 24.5208 24.3256 24.5208 20.2812V14.1146C24.5125 13.4795 23.9997 12.9666 23.3646 12.9583Z" fill="black"/>
</svg>
