<svg width="37" height="37" viewBox="0 0 37 37" fill="none" xmlns="http://www.w3.org/2000/svg">
<path d="M31.5117 5.33417C31.3287 4.90811 30.9116 4.63007 30.4479 4.625H22.7396C22.101 4.625 21.5833 5.14267 21.5833 5.78125C21.5833 6.41983 22.101 6.9375 22.7396 6.9375H27.6575L18.8392 15.7558C18.3883 16.2073 18.3883 16.9386 18.8392 17.39C19.2906 17.8409 20.0219 17.8409 20.4733 17.39L29.2917 8.57167V13.4896C29.2917 14.1282 29.8093 14.6458 30.4479 14.6458C31.0865 14.6458 31.6042 14.1282 31.6042 13.4896V5.78125C31.6034 5.62756 31.5719 5.47557 31.5117 5.33417Z" fill="black"/>
<path d="M27.3646 16.9583C26.7295 16.9666 26.2166 17.4795 26.2083 18.1146V24.2812C26.1999 27.0449 23.9616 29.2832 21.1979 29.2917H11.9479C9.18425 29.2832 6.94596 27.0449 6.9375 24.2812V15.0312C6.94596 12.2676 9.18425 10.0293 11.9479 10.0208H18.1146C18.7532 10.0208 19.2708 9.50316 19.2708 8.86458C19.2708 8.226 18.7532 7.70833 18.1146 7.70833H11.9479C7.90358 7.70833 4.625 10.9869 4.625 15.0312V24.2812C4.625 28.3256 7.90358 31.6042 11.9479 31.6042H21.1979C25.2423 31.6042 28.5208 28.3256 28.5208 24.2812V18.1146C28.5125 17.4795 27.9997 16.9666 27.3646 16.9583Z" fill="black"/>
</svg>
