<svg width="24" height="24" viewBox="0 0 24 24" fill="none" xmlns="http://www.w3.org/2000/svg">
<path fill-rule="evenodd" clip-rule="evenodd" d="M8.5 2.5H15.5C18.8137 2.5 21.5 5.18629 21.5 8.5V15.5C21.5 18.8137 18.8137 21.5 15.5 21.5H8.5C5.18629 21.5 2.5 18.8137 2.5 15.5V8.5C2.5 5.18629 5.18629 2.5 8.5 2.5ZM15.5 20C17.983 19.9945 19.9945 17.983 20 15.5V8.5C19.9945 6.017 17.983 4.0055 15.5 4H8.5C6.017 4.0055 4.0055 6.017 4 8.5V15.5C4.0055 17.983 6.017 19.9945 8.5 20H15.5Z" fill="black"/>
<path d="M15.18 7C14.768 7.00539 14.4354 7.33804 14.43 7.75C14.4196 8.38126 14.1567 8.98203 13.7 9.41801C13.2434 9.85398 12.6311 10.0888 12 10.07C10.7002 10.1093 9.61349 9.0897 9.57 7.79C9.57 7.37579 9.23421 7.04 8.82 7.04C8.40579 7.04 8.07 7.37579 8.07 7.79C8.11376 9.91804 9.87187 11.609 12 11.57C14.1281 11.609 15.8862 9.91804 15.93 7.79C15.941 7.58425 15.8668 7.38304 15.725 7.23362C15.5831 7.08419 15.386 6.99971 15.18 7Z" fill="black"/>
</svg>
